<svg xmlns="http://www.w3.org/2000/svg" xmlns:xlink="http://www.w3.org/1999/xlink" viewBox="0 0 439 256.23"><defs><style>.cls-1{fill:url(#linear-gradient);}.cls-2{fill:url(#linear-gradient-2);}.cls-3{fill:url(#linear-gradient-3);}.cls-4{fill:#fff;}.cls-5{fill:none;stroke-width:6px;stroke:url(#New_Gradient_Swatch_copy);}.cls-5,.cls-6,.cls-7{stroke-miterlimit:10;}.cls-6,.cls-7{stroke:#fff;}.cls-6{fill:url(#New_Gradient_Swatch_copy-2);}.cls-7{fill:url(#New_Gradient_Swatch_copy-3);}</style><linearGradient id="linear-gradient" x1="137.78" y1="152.09" x2="28.68" y2="43" gradientUnits="userSpaceOnUse"><stop offset="0" stop-color="#4fbdd3"/><stop offset="1" stop-color="#7ccaaa"/></linearGradient><linearGradient id="linear-gradient-2" x1="173.97" y1="20.55" x2="262.88" y2="174.54" gradientUnits="userSpaceOnUse"><stop offset="0" stop-color="#f04f49"/><stop offset="1" stop-color="#f48021"/></linearGradient><linearGradient id="linear-gradient-3" x1="293.33" y1="97.54" x2="414.52" y2="97.54" gradientUnits="userSpaceOnUse"><stop offset="0" stop-color="#f3756c"/><stop offset="1" stop-color="#ed2660"/></linearGradient><linearGradient id="New_Gradient_Swatch_copy" y1="96" x2="439" y2="96" gradientUnits="userSpaceOnUse"><stop offset="0" stop-color="#4fbdd3"/><stop offset="0.24" stop-color="#7ccaaa"/><stop offset="0.46" stop-color="#f04f49"/><stop offset="0.61" stop-color="#f48021"/><stop offset="0.8" stop-color="#f3756c"/><stop offset="1" stop-color="#ed2660"/></linearGradient><linearGradient id="New_Gradient_Swatch_copy-2" x1="3" y1="229" x2="56" y2="229" xlink:href="#New_Gradient_Swatch_copy"/><linearGradient id="New_Gradient_Swatch_copy-3" x1="383" y1="229" x2="436" y2="229" xlink:href="#New_Gradient_Swatch_copy"/></defs><title>GNV_new_1</title><g id="Layer_2" data-name="Layer 2"><g id="Layer_1-2" data-name="Layer 1"><path class="cls-1" d="M59.53,170.34c-16.8,0-28.4-11.6-28.4-28.4V53.15c0-16.8,11.6-28.4,28.4-28.4h20.8V52H66.73c-4.4,0-6.8,2.4-6.8,6.8v77.59c0,4.4,2.4,6.8,6.8,6.8h13.6v27.2Zm40.2-27.2c4.4,0,6.8-2.4,6.8-6.8v-21.4H80.13V89h55.2v53c0,16.8-11.6,28.4-28.4,28.4H86.33v-27.2Zm7.2-118.39c16.8,0,28.4,11.6,28.4,28.4V72h-28.8V58.75c0-4.4-2.4-6.8-6.8-6.8H86.33V24.75Z"/><path class="cls-2" d="M189.93,169.54h-27v-137l27,50.2Zm-24.6-144h28.6l77.6,144h-28.6Zm81.6,86.79V25.55h27v137Z"/><path class="cls-3" d="M337.13,169.54l-43.8-144h32.8l37,144Zm45.4-144h32l-43.79,144h-1.8l-12-46.2Z"/><path class="cls-4" d="M72.56,255.94H61.25L75.8,231.25l5.69,9.5Zm32.19,0h-12l-31-51.84h12ZM93,204.1h11.3L90.2,228.15l-5.69-9.65Z"/><path class="cls-4" d="M111.44,255.94V204.1h10.37v51.84Zm26.5-51.84c6,0,10.22,4.18,10.22,10.22v13.11c0,6-4.18,10.22-10.22,10.22H124v-9.79h11.37a2.2,2.2,0,0,0,2.45-2.45v-9.07a2.21,2.21,0,0,0-2.45-2.45H124V204.1Z"/><path class="cls-4" d="M166.88,204.1v51.84H156.51V204.1Zm21.74,51.84H169v-9.79h19.58Z"/><path class="cls-4" d="M206.91,213.6a2.21,2.21,0,0,0-2.45,2.45V244a2.21,2.21,0,0,0,2.45,2.45h5v9.79h-7.63c-6,0-10.23-4.17-10.23-10.22V214c0-6,4.18-10.23,10.23-10.23H212v9.79Zm14.76-9.79c6.05,0,10.23,4.18,10.23,10.23v32c0,6.05-4.18,10.22-10.23,10.22h-7.56v-9.79h5a2.21,2.21,0,0,0,2.45-2.45V216.05a2.21,2.21,0,0,0-2.45-2.45h-5v-9.79Z"/><path class="cls-4" d="M252.41,204.1v51.84H242V204.1Zm16.71,51.84-8.35-19.22h-6.2v-9.65h11.31a2.21,2.21,0,0,0,2.45-2.45v-8.28a2.21,2.21,0,0,0-2.45-2.45H254.57V204.1h13.9c6,0,10.23,4.18,10.23,10.22v12.17c0,4.9-2.74,8.57-7.06,9.8l8.64,19.65Z"/><path class="cls-4" d="M288.84,255.94V204.1h10.37v51.84Zm33.92-42.05H301.37V204.1h21.39Zm-4.47,20.45H301.37v-9.79h16.92Zm4.47,21.6H301.37v-9.79h21.39Z"/><path class="cls-4" d="M342.27,204.1v51.84H331.9V204.1ZM359,255.94l-8.35-19.22h-6.19v-9.65h11.3a2.2,2.2,0,0,0,2.45-2.45v-8.28a2.21,2.21,0,0,0-2.45-2.45h-11.3V204.1h13.9c6,0,10.22,4.18,10.22,10.22v12.17c0,4.9-2.74,8.57-7.06,9.8l8.64,19.65Z"/><rect class="cls-5" x="3" y="3" width="433" height="186" rx="33.47" ry="33.47"/><path class="cls-6" d="M5.56,226a3,3,0,0,0,0,6H56v-6Z"/><path class="cls-7" d="M433.44,232a3,3,0,0,0,0-6H383v6Z"/></g></g></svg>